<?xml version="1.0" encoding="utf-8"?>
<!-- Generator: Adobe Illustrator 21.0.2, SVG Export Plug-In . SVG Version: 6.00 Build 0)  -->
<svg version="1.1" id="Layer_1" xmlns="http://www.w3.org/2000/svg" xmlns:xlink="http://www.w3.org/1999/xlink" x="0px" y="0px"
	 viewBox="0 0 512 512" style="enable-background:new 0 0 512 512;" xml:space="preserve">
<style type="text/css">
	.st0{fill:#FFFFFF;}
</style>
<g>
	<g>
		<path class="st0" d="M507,148.7c0,0,0-0.1,0-0.1c-0.2-1.6-5.4-39.6-21.7-57.5c-19.2-21.7-40.6-23.9-52-25l-3.3-0.4
			c-68.8-5.4-172.7-6-174.1-6c-1,0-105,0.6-174.2,6L78.8,66C67.3,67.2,46,69.4,26.9,91c-16.4,18-21.6,56-21.8,57.7
			c-0.1,0.4-5,44.1-5,87.3v40.4c0,43.2,4.9,86.8,5,87.4c0.2,1.6,5.4,39.6,21.7,57.5c17.8,20,39.9,22.9,53.1,24.6
			c2.3,0.3,4.4,0.6,6.9,1c39.5,4.1,163.8,5.4,169.2,5.4c1,0,105.1-0.2,174.3-5.6l3-0.3c11.4-1.2,32.7-3.5,51.8-25
			c16.5-17.9,21.6-55.9,21.9-57.7c0-0.4,5-44.1,5-87.3V236C512,192.9,507,149.2,507,148.7z M362.6,272l-162.2,90.7
			c-1.3,0.7-2.7,1.1-4.2,1.1c-1.5,0-3-0.4-4.3-1.2c-2.6-1.5-4.2-4.3-4.2-7.4V169.6c0-3.1,1.6-5.9,4.3-7.4c2.7-1.5,5.9-1.5,8.6,0
			l162.2,94.9c2.6,1.5,4.3,4.4,4.2,7.4C367,267.7,365.3,270.5,362.6,272z"/>
	</g>
</g>
</svg>
